<?xml version="1.0" encoding="UTF-8"?><svg id="Layer_1" xmlns="http://www.w3.org/2000/svg" viewBox="0 0 200 200"><defs><style>.cls-1{fill:#bc962e;}</style></defs><path class="cls-1" d="M46.37,79.16c3,2.25,5.7,4.64,8.73,6.48,9.83,5.96,18.64,5.38,27.76-1.63,13.96-10.73,27.89-21.51,41.85-32.25,5.94-4.56,12.64-4.43,17.05,.44,1.17,1.29,2.14,2.91,2.74,4.55,2.01,5.47,3.88,11,5.67,16.54,2.03,6.29,1.12,8.99-4.05,12.98-10.37,7.99-20.74,15.98-31.1,23.98-2.44,1.88-4.53,3.95-4.55,7.39-.03,5.29,3.97,8.24,8.9,6.21,2.13-.88,4.08-2.32,5.94-3.72,5.94-4.48,11.8-9.06,17.7-13.6,.58-.45,1.22-.82,1.99-1.34,2.93,8.64,5.83,17.08,8.58,25.56,.22,.67-.32,1.99-.93,2.47-5.83,4.61-11.68,9.22-17.7,13.59-2.25,1.63-4.85,2.97-7.49,3.84-7.54,2.5-13.49-.21-16.56-7.53-1.71-4.07-2.96-8.33-4.39-12.51-3.08-8.99-6.18-17.97-9.21-26.97-2.82-8.38-1.62-12.62,5.32-18.05,10.46-8.18,21.01-16.25,31.53-24.35,1.47-1.13,3.02-2.21,1.69-4.37-1.02-1.66-3.16-1.82-5.22-.24-11.13,8.55-22.35,16.99-33.27,25.8-7.4,5.97-8.96,13.17-5.77,22.64q1.78,5.29-2.69,8.52c-7.83,5.65-21.08,5.59-28.66-.39-1.77-1.4-3.47-3.38-4.24-5.45-3.31-9-6.27-18.13-9.34-27.22-.14-.41-.18-.86-.29-1.38Z"/></svg>