<?xml version="1.0" encoding="UTF-8"?><svg id="Layer_1" xmlns="http://www.w3.org/2000/svg" viewBox="0 0 200 84.86"><defs><style>.cls-1{fill:#bc962e;}</style></defs><path class="cls-1" d="M33.23,32.07c1.49,1.12,2.83,2.3,4.34,3.22,4.88,2.96,9.26,2.67,13.79-.81,6.94-5.33,13.86-10.69,20.79-16.02,2.95-2.27,6.28-2.2,8.47,.22,.58,.64,1.06,1.45,1.36,2.26,1,2.72,1.93,5.46,2.82,8.22,1.01,3.12,.56,4.47-2.01,6.45-5.15,3.97-10.3,7.94-15.45,11.91-1.21,.93-2.25,1.96-2.26,3.67-.02,2.63,1.97,4.09,4.42,3.09,1.06-.44,2.02-1.15,2.95-1.85,2.95-2.23,5.86-4.5,8.79-6.76,.29-.22,.61-.41,.99-.66,1.45,4.29,2.9,8.48,4.26,12.7,.11,.33-.16,.99-.46,1.23-2.9,2.29-5.8,4.58-8.79,6.75-1.12,.81-2.41,1.48-3.72,1.91-3.74,1.24-6.7-.11-8.23-3.74-.85-2.02-1.47-4.14-2.18-6.21-1.53-4.46-3.07-8.92-4.58-13.4-1.4-4.16-.81-6.27,2.64-8.97,5.2-4.06,10.44-8.07,15.66-12.1,.73-.56,1.5-1.1,.84-2.17-.51-.82-1.57-.91-2.59-.12-5.53,4.25-11.1,8.44-16.53,12.82-3.68,2.96-4.45,6.54-2.87,11.25q.88,2.63-1.34,4.23c-3.89,2.81-10.47,2.78-14.24-.19-.88-.69-1.73-1.68-2.1-2.71-1.65-4.47-3.11-9.01-4.64-13.52-.07-.2-.09-.43-.14-.69Z"/><g><g><path class="cls-1" d="M135.26,31.49c.3-.06,.59,.11,.89,.49-.08-.09,.15,.28,.69,1.09,.93,1.45,1.35,3.31,1.24,5.57-.51,2.2-.91,3.45-1.19,3.75-1.14,1.31-2.88,2.19-5.24,2.65-2.3,.46-4.07,.32-5.31-.41-1.46-.87-2.15-2.4-2.06-4.58,.07-1.58,.48-3.22,1.25-4.92,.23-.51,.47-.84,.71-.99,.16-.1,.31-.11,.44-.03,.11,.08,.16,.15,.13,.21-1.27,2.67-1.59,4.8-.96,6.38,.49,1.23,2.21,1.81,5.17,1.73,2.22-.25,4.05-1.08,5.48-2.5,.3-.3,.12-1.5-.51-3.61-.17-.57-.57-1.26-1.19-2.06-.27-.35-.34-.89-.23-1.6,.11-.71,.34-1.09,.69-1.16Zm-2.53-2.63l-1.75,2.02-2.02-1.76,1.75-2,2.02,1.75Z"/><path class="cls-1" d="M141.85,29.94c-.1,2.86-.08,4.72,.09,5.57,.07,.34,.18,.65,.33,.93,.36,.69,1.02,1.05,1.97,1.09h.64v2.46h-.64c-.9-.05-1.51-.15-1.83-.31-.87-.44-1.42-1.43-1.66-2.96-.1-.63-.11-2.39-.03-5.27,.07-2.87,.03-4.77-.11-5.7l1.27-2.45c.1,1.22,.09,3.44-.03,6.64Z"/><path class="cls-1" d="M147.46,36.76c-.28-.73-.4-1.29-.37-1.66,.02-.29,.19-.81,.51-1.57,.24-.56,.78-1.1,1.62-1.6,.73-.46,1.25-.67,1.54-.63,.26,.04,.58,.3,.97,.79,.47,.56,.69,1.12,.66,1.66-.03,.37-.54,1.4-1.54,3.09,.52,.5,1.3,.73,2.32,.69h.46v2.46h-.46c-1.75-.02-3.27-.48-4.56-1.39-1.13,.72-2.3,1.19-3.52,1.39h-.6v-2.46h.6c.77,0,1.57-.25,2.38-.76Zm1.7-9l1.36-1.57,2.02,1.75-1.75,2.02-1.82-1.57-1.36,1.57-2.02-1.76,1.75-2,1.82,1.57Zm-.17,7.63c.32,.3,.6,.47,.82,.51,.05,0,.23-.16,.54-.49,.33-.34,.5-.58,.51-.72,0-.25-.14-.49-.46-.73-.24-.18-.48-.31-.73-.4-.18-.06-.43,.02-.74,.23-.33,.22-.49,.45-.5,.69-.01,.27,.18,.57,.56,.9Z"/><path class="cls-1" d="M156.45,37.52c.38,.01,.82-.11,1.32-.36,.57-.29,.89-.62,.96-.99-.36-.98-.78-1.59-1.26-1.83-.08-.03-.09-.19-.03-.49,.06-.3,.16-.58,.3-.86,.37-.76,.77-.91,1.2-.43,.22,.55,.33,.85,.34,.89,.37,1.16,.56,1.96,.57,2.39,.02,.95-.31,1.86-.99,2.7-.69,.88-1.49,1.35-2.42,1.43h-3.36v-2.46h3.36Zm.96-9.06l1.36-1.57,2.02,1.75-1.75,2.02-1.82-1.57-1.36,1.57-2.02-1.76,1.75-2,1.82,1.57Z"/><path class="cls-1" d="M163.28,42.94c-.45-.43-.53-.96-.23-1.6,.27-.61,.7-1.02,1.3-1.23,.97-.35,1.66-.33,2.05,.07,.11,.11,.1,.36-.06,.73-.16,.4-.48,.5-.96,.29-.57-.25-.92-.21-1.03,.1-.11,.31-.01,.55,.3,.74,.34,.2,.76,.27,1.24,.21,.53-.06,.83-.08,.87-.07-.22-.07-.31,.31-.29,1.13-.53-.03-1.11,.11-1.75,.42-.09,.04-.34,.17-.76,.39-.29,.15-.52,.26-.7,.31-.08,.03-.16-.01-.26-.13-.11-.12-.14-.25-.1-.37,.11-.26,.38-.48,.8-.67-.05,.03-.2-.08-.44-.31Zm1.24-7.44l-.51-7.91c-.07-.97-.09-1.54-.07-1.69,.09-.56,.41-1.35,.99-2.35,.32,0,.49,.32,.49,.96,0,.16-.02,.42-.06,.79-.03,.31-.04,.51-.03,.63l.56,6.77c.14,1.84,0,3.5-.46,4.97-.37,1.23-.72,1.77-1.04,1.62,0,.05,.05-.32,.11-1.09,.08-.9,.09-1.79,.03-2.69Z"/></g><g><path class="cls-1" d="M100.11,43.94h3.05v2.8h-3.05v-2.8Zm.15,5.41h2.76v11.79h-2.76v-11.79Z"/><path class="cls-1" d="M104.96,49.36h1.48v-3.76h2.75v3.76h2.93v2.31h-2.93v5.26c0,.8,.13,1.35,.38,1.62,.25,.28,.67,.42,1.24,.42,.23,0,.47-.02,.73-.06,.25-.04,.49-.09,.7-.14v2.24c-.31,.08-.65,.15-1.02,.2-.37,.05-.73,.07-1.07,.07-.74,0-1.34-.11-1.82-.32-.48-.21-.85-.5-1.13-.87-.28-.37-.48-.81-.59-1.32-.12-.51-.17-1.07-.17-1.67v-5.44h-1.48v-2.31Z"/><path class="cls-1" d="M118.1,55.98l-.91,.89v4.28h-2.76v-17.72h2.76v10.33l4.23-4.4h3.35l-4.77,4.85,5.54,6.94h-3.35l-4.08-5.17Z"/><path class="cls-1" d="M138.6,61.14h-2.68v-1.5h-.07c-.41,.51-.94,.96-1.59,1.34-.65,.39-1.46,.58-2.45,.58-.67,0-1.34-.13-2.02-.39-.67-.26-1.28-.66-1.82-1.19-.54-.53-.98-1.19-1.32-1.98-.34-.79-.5-1.71-.5-2.76,0-.93,.16-1.79,.47-2.56,.31-.77,.73-1.43,1.27-1.97,.53-.54,1.15-.96,1.86-1.27,.71-.3,1.46-.46,2.26-.46,.49,0,.93,.06,1.33,.17,.39,.11,.75,.27,1.07,.46,.32,.19,.6,.4,.84,.64s.45,.47,.63,.7h.05v-1.6h2.68v11.79Zm-9.62-5.91c0,.49,.07,.97,.21,1.44,.14,.47,.36,.89,.65,1.25,.29,.37,.67,.66,1.12,.89s.98,.33,1.59,.33c.46,0,.9-.09,1.32-.28,.42-.19,.79-.45,1.11-.79,.32-.34,.58-.74,.78-1.21,.2-.47,.29-.99,.29-1.56s-.09-1.13-.27-1.62-.43-.91-.74-1.25c-.31-.34-.68-.61-1.11-.8-.43-.19-.88-.28-1.35-.28-.61,0-1.14,.11-1.59,.33s-.82,.52-1.12,.89-.52,.79-.66,1.25c-.15,.47-.22,.94-.22,1.42Z"/><path class="cls-1" d="M141.82,49.36h2.73v1.48h.05c.48-.67,1.03-1.15,1.66-1.44,.63-.29,1.27-.43,1.93-.43,.61,0,1.19,.1,1.75,.31s1.05,.53,1.46,.96c.42,.43,.75,.99,1,1.67,.25,.68,.37,1.5,.37,2.45v6.79h-2.76v-6.64c0-1.02-.23-1.79-.68-2.31-.45-.53-1.07-.79-1.86-.79-.87,0-1.57,.3-2.1,.89-.53,.59-.8,1.46-.8,2.61v6.25h-2.76v-11.79Z"/><path class="cls-1" d="M155.82,49.36h2.73v1.48h.05c.48-.67,1.03-1.15,1.66-1.44,.63-.29,1.27-.43,1.93-.43,.61,0,1.19,.1,1.75,.31s1.05,.53,1.46,.96c.42,.43,.75,.99,1,1.67s.37,1.5,.37,2.45v6.79h-2.76v-6.64c0-1.02-.23-1.79-.68-2.31-.45-.53-1.07-.79-1.86-.79-.87,0-1.57,.3-2.1,.89-.53,.59-.8,1.46-.8,2.61v6.25h-2.76v-11.79Z"/></g></g></svg>